<svg width="64" height="64" viewBox="0 0 64 64" fill="none" xmlns="http://www.w3.org/2000/svg">
<path fill-rule="evenodd" clip-rule="evenodd" d="M35.5404 30.1244C35.0326 30.6324 34.3438 30.9177 33.6254 30.9177C32.9071 30.9177 32.2183 30.6324 31.7105 30.1244C31.2026 29.6165 30.917 28.9276 30.917 28.2093C30.917 27.4909 31.2026 26.802 31.7105 26.2941C32.2183 25.7862 32.9071 25.5008 33.6254 25.5008C34.3438 25.5008 35.0326 25.7862 35.5404 26.2941C36.0482 26.802 36.3339 27.4909 36.3339 28.2093C36.3339 28.9276 36.0482 29.6165 35.5404 30.1244ZM28.4328 11.0996C28.2297 11.3028 27.9546 11.4169 27.6668 11.4169C27.3791 11.4169 27.104 11.3028 26.9009 11.0996C26.6977 10.8964 26.5835 10.6209 26.5835 10.3335C26.5835 10.0462 26.6977 9.77063 26.9009 9.56747C27.104 9.36427 27.3791 9.25014 27.6668 9.25014C27.9546 9.25014 28.2297 9.36427 28.4328 9.56747C28.636 9.77063 28.7502 10.0462 28.7502 10.3335C28.7502 10.6209 28.636 10.8964 28.4328 11.0996ZM32.231 14.6424C32.1559 14.6587 32.0787 14.667 32.0004 14.667C31.7126 14.667 31.4375 14.5529 31.2344 14.3497C31.0312 14.1465 30.917 13.871 30.917 13.5837C30.917 13.2963 31.0312 13.0208 31.2344 12.8176C31.4375 12.6144 31.7126 12.5003 32.0004 12.5003C32.2881 12.5003 32.5632 12.6144 32.7663 12.8176C32.9695 13.0208 33.0837 13.2963 33.0837 13.5837C33.0837 13.871 32.9695 14.1465 32.7663 14.3497C32.6182 14.4979 32.432 14.5987 32.231 14.6424ZM37.0999 7.84943C36.8967 8.05263 36.6217 8.16676 36.3339 8.16676C36.0461 8.16676 35.771 8.05263 35.5679 7.84943C35.3648 7.64626 35.2505 7.37072 35.2505 7.08338C35.2505 6.79604 35.3648 6.5205 35.5679 6.31733C35.771 6.11413 36.0461 6 36.3339 6C36.6217 6 36.8967 6.11413 37.0999 6.31733C37.303 6.5205 37.4173 6.79604 37.4173 7.08338C37.4173 7.37072 37.303 7.64626 37.0999 7.84943ZM34.7003 55.1551L40.7002 56.6555C41.3191 56.8083 41.7518 57.363 41.7518 58H22.251C22.251 57.363 22.6848 56.8083 23.3016 56.6534L29.239 55.1692C30.2261 54.9222 30.918 54.0349 30.918 53.0186V47.1662C30.918 46.2551 30.5403 45.4317 29.9352 44.8413C27.05 44.396 24.3924 43.0078 22.379 40.8935C19.5595 37.9347 18.4497 33.7692 19.2569 29.7877L22.2489 15.7504H26.5824V13.5837C26.5824 13.2963 26.6967 13.0208 26.8998 12.8176C27.1029 12.6144 27.3791 12.5003 27.6658 12.5003C27.9536 12.5003 28.2286 12.6144 28.4318 12.8176C28.6349 13.0208 28.7492 13.2963 28.7492 13.5837V37.418C28.7492 37.5634 28.7788 37.7057 28.8338 37.8372C28.8878 37.9656 28.9661 38.0837 29.0666 38.184C29.2697 38.3872 29.5458 38.5014 29.8325 38.5014C30.1203 38.5014 30.3954 38.3872 30.5985 38.184C30.7276 38.0554 30.8196 37.8976 30.8704 37.7263C30.9001 37.6271 30.9159 37.5234 30.9159 37.418V32.2633C31.6724 32.7684 32.5547 33.052 33.4636 33.082C34.3724 33.1121 35.2717 32.8875 36.0588 32.4334C36.847 31.9794 37.4924 31.3142 37.9219 30.5128C38.3515 29.7114 38.5493 28.8058 38.4911 27.8983C38.3388 25.4326 36.3032 23.4402 33.836 23.3373C32.8002 23.2921 31.7782 23.5787 30.917 24.1553V16.8338C30.917 16.5464 31.0312 16.2709 31.2344 16.0677C31.4375 15.8645 31.7136 15.7504 32.0004 15.7504C32.2881 15.7504 32.5632 15.8645 32.7663 16.0677C32.8965 16.1977 32.9896 16.3574 33.0404 16.5308C33.0689 16.6284 33.0837 16.7303 33.0837 16.8338V17.9172C33.0837 18.2045 33.198 18.48 33.4011 18.6832C33.6043 18.8864 33.8804 19.0005 34.1671 19.0005C34.4549 19.0005 34.73 18.8864 34.9331 18.6832C35.1362 18.48 35.2505 18.2045 35.2505 17.9172V10.3335C35.2505 10.0462 35.3648 9.77063 35.5679 9.56747C35.771 9.36427 36.0472 9.25014 36.3339 9.25014C36.6217 9.25014 36.8967 9.36427 37.0999 9.56747C37.303 9.77063 37.4173 10.0462 37.4173 10.3335V15.7504H41.7508L44.7449 29.7877C45.5521 33.767 44.4423 37.9347 41.6228 40.8935C39.6083 43.0072 36.9517 44.3952 34.0666 44.8413C33.4614 45.4317 33.0837 46.2551 33.0837 47.1662V53.0836C33.0837 53.5597 33.2424 54.0222 33.5355 54.3976C33.8286 54.7729 34.238 55.0396 34.7003 55.1551Z" fill="#C7154A"/>
</svg>
