<svg width="64" height="64" viewBox="0 0 64 64" fill="none" xmlns="http://www.w3.org/2000/svg">
<path d="M46.8023 11.2915H15.5293C13.4334 11.2915 11.7185 13.0067 11.7185 15.1026V49.5909C11.7185 51.6866 13.4334 53.4015 15.5293 53.4015H36.1265C35.8928 43.153 39.3925 23.2639 46.8023 11.2915Z" fill="#0F80CC"/>
<path d="M45.6657 12.4033H15.5288C14.0406 12.4033 12.8295 13.6141 12.8295 15.1026V47.0746C19.6548 44.4551 29.8988 42.1948 36.9819 42.2974C38.4053 34.8549 42.5886 20.2693 45.6657 12.4033V12.4033Z" fill="url(#paint0_linear_971_1465)"/>
<path d="M54.0964 10.1629C51.9546 8.25282 49.3613 9.02006 46.8019 11.2915C46.422 11.629 46.0429 12.0034 45.6658 12.4033C41.2874 17.048 37.2234 25.6515 35.9607 32.222C36.4526 33.2194 36.8368 34.4923 37.0898 35.4646C37.1546 35.714 37.2132 35.9482 37.2599 36.1473C37.3711 36.6187 37.4308 36.9244 37.4308 36.9244C37.4308 36.9244 37.3915 36.7759 37.2304 36.3088C37.1998 36.2192 37.1656 36.1214 37.1252 36.0063C37.1079 35.9588 37.0839 35.901 37.0576 35.8394C36.772 35.1754 35.982 33.7741 35.6343 33.164C35.3369 34.0413 35.0741 34.8619 34.8541 35.6044C35.8578 37.4409 36.4695 40.5882 36.4695 40.5882C36.4695 40.5882 36.4164 40.3843 36.1642 39.6724C35.9403 39.0428 34.825 37.0886 34.5608 36.6318C34.1089 38.3001 33.9293 39.4265 34.0912 39.7008C34.4056 40.2322 34.7051 41.1491 34.968 42.1631C35.562 44.4475 35.9749 47.2285 35.9749 47.2285C35.9749 47.2285 35.9882 47.4128 36.0106 47.6964C35.9281 49.6148 35.9776 51.6038 36.1261 53.4015C36.3229 55.7814 36.6934 57.8257 37.1656 58.9199L37.4862 58.7451C36.7928 56.5895 36.5111 53.7644 36.6345 50.5065C36.8211 45.5267 37.967 39.5212 40.0845 33.2618C43.6618 23.8129 48.6251 16.2317 53.1677 12.6111C49.0274 16.3503 43.4238 28.4537 41.7463 32.9358C39.8681 37.9549 38.5371 42.6648 37.7349 47.1774C39.1189 42.9469 43.5939 41.1284 43.5939 41.1284C43.5939 41.1284 45.7887 38.4215 48.3537 34.5543C46.8172 34.9048 44.2943 35.5046 43.4493 35.8598C42.2028 36.3827 41.8669 36.561 41.8669 36.561C41.8669 36.561 45.9046 34.1022 49.3688 32.9888C54.1329 25.4853 59.3233 14.8256 54.0964 10.1629" fill="#003B57"/>
<defs>
<linearGradient id="paint0_linear_971_1465" x1="31.7633" y1="13.1129" x2="31.7633" y2="45.1465" gradientUnits="userSpaceOnUse">
<stop stop-color="#97D9F6"/>
<stop offset="0.920245" stop-color="#0F80CC"/>
<stop offset="1" stop-color="#0F80CC"/>
</linearGradient>
</defs>
</svg>
