<svg xmlns="http://www.w3.org/2000/svg" width="375" height="75" fill="none"><path fill="#F26A02" d="M28.129 45.124c-.087-.148-.171-.3-.25-.45h-5.413c-3.975 0-7.212-3.23-7.212-7.198 0-3.97 3.235-7.2 7.214-7.2h18.934a7.22 7.22 0 0 1 6.249 3.6l2.083 3.6 4.677-8.087.003-.006a15.194 15.194 0 0 0-5.431-5.201c-.188-.107-.25-.139-.25-.139-2.677-1.556-6.814-1.858-6.814-1.858-.171-.006-.344-.01-.515-.01H22.468c-8.453.002-15.329 6.863-15.329 15.299 0 8.435 6.876 15.298 15.327 15.298h10.087l-4.424-7.648Z"/><path fill="#3AA7FB" d="M54.68 45.122c-.087.15-.175.296-.266.44l2.706 4.68c1.988 3.437.802 7.85-2.64 9.833-3.445 1.984-7.866.802-9.854-2.636L35.16 41.075a7.195 7.195 0 0 1 0-7.201l2.084-3.6h-9.365a15.153 15.153 0 0 0-1.794 7.578c-.012 3.092 1.796 6.82 1.796 6.82.08.15.163.302.25.45l9.467 16.367c4.225 7.305 13.619 9.817 20.938 5.598 7.322-4.217 9.838-13.592 5.612-20.895l-5.044-8.718-4.425 7.648Z"/><path fill="#1954B3" d="M41.402 22.177c.173 0 .346.002.515.01l2.707-4.678c1.988-3.435 6.41-4.618 9.852-2.635 3.446 1.986 4.63 6.398 2.64 9.835L47.65 41.074a7.223 7.223 0 0 1-6.249 3.602h-4.165l4.68 8.085.004.005c2.63-.088 5.093-.84 7.228-2.094.186-.109.246-.146.246-.146 2.69-1.536 5.02-4.962 5.02-4.962.09-.144.18-.292.265-.44l9.467-16.367c4.225-7.305 1.71-16.678-5.612-20.897-7.32-4.219-16.712-1.706-20.939 5.599l-5.043 8.718h8.85Zm60.321 25.438c-1.405.156-2.686.25-3.842.282-1.281 0-2.476-.087-3.584-.257-1.109-.17-2.024-.521-2.741-1.052-.688-.56-1.235-1.526-1.64-2.899-.406-1.37-.61-2.913-.61-4.63v-1.683c0-1.62.204-3.101.61-4.442.405-1.34.984-2.306 1.734-2.898.623-.53 1.482-.912 2.575-1.146 1.094-.235 2.452-.35 4.075-.35 1.967 0 4.107.202 6.418.607l.282-.281V23.02c-.938-.217-2.078-.405-3.419-.56a37.517 37.517 0 0 0-4.31-.235c-3.436 0-6.277.546-8.526 1.637-2.249 1.091-3.944 2.797-5.082 5.119-1.14 2.323-1.71 5.276-1.71 8.86 0 3.802.5 6.912 1.5 9.327.999 2.415 2.553 4.193 4.66 5.33 2.109 1.139 4.927 1.707 8.457 1.707 1.999 0 3.709-.109 5.129-.328a33.12 33.12 0 0 0 3.959-.842V47.24l-.329-.235c-1 .25-2.202.452-3.607.608l.001.003Zm24.454-17.578c-1.781-.935-3.827-1.402-6.138-1.402-2.31 0-4.215.467-5.997 1.402-1.781.936-3.178 2.385-4.193 4.349-1.014 1.963-1.522 4.38-1.522 7.246 0 2.65.468 4.926 1.406 6.827.937 1.901 2.295 3.358 4.075 4.37 1.781 1.013 3.857 1.52 6.23 1.52 2.372 0 4.582-.507 6.348-1.52 1.764-1.012 3.122-2.468 4.075-4.37.952-1.901 1.43-4.175 1.43-6.827 0-2.866-.508-5.283-1.522-7.246-1.015-1.964-2.412-3.413-4.194-4.349h.002Zm-1.031 13.139c0 1.246-.164 2.266-.492 3.061a3.53 3.53 0 0 1-1.594 1.8c-.734.405-1.741.608-3.021.608-1.279 0-2.194-.195-2.927-.585-.734-.39-1.257-.983-1.568-1.778-.312-.795-.468-1.83-.468-3.108v-3.32c0-1.246.171-2.283.515-3.108.343-.825.866-1.432 1.568-1.822.703-.39 1.663-.585 2.882-.585 1.28 0 2.279.195 2.999.585.718.39 1.249.997 1.593 1.822.344.827.515 1.864.515 3.109v3.319l-.002.002Zm24.783-14.541c-1.843 0-3.32.358-4.427 1.076-1.108.718-1.976 1.76-2.6 3.133h-.22l-1.702-3.694h-4.825v24.687h6.7v-17.98c.453-.296 1.062-.536 1.826-.721a11.416 11.416 0 0 1 2.67-.329c1.031 0 1.811.087 2.343.257.53.173.898.445 1.101.818.203.373.304.857.304 1.45v16.503h6.7v-16.41c0-3.054-.695-5.284-2.086-6.686-1.39-1.403-3.32-2.104-5.786-2.104h.002Zm24.453 19.59c-.967 0-1.679-.086-2.132-.257-.453-.17-.757-.46-.913-.864-.156-.405-.235-.998-.235-1.778V34.714h7.262V29.15h-7.262v-6.359h-2.343l-4.356 1.731v4.63h-3.373v5.563h3.373v10.192c0 1.995.272 3.686.819 5.072.546 1.387 1.499 2.462 2.857 3.227 1.359.763 3.1 1.145 5.223 1.145 1 0 2.022-.069 3.068-.21 1.047-.14 1.804-.288 2.272-.444v-5.422l-.235-.235a38.664 38.664 0 0 1-4.028.188l.003-.004Zm23.846-18.515c-1.5-.717-3.279-1.077-5.342-1.077-2.56 0-4.7.46-6.417 1.38-1.718.92-3.021 2.346-3.912 4.279-.891 1.933-1.336 4.38-1.336 7.34s.398 5.277 1.195 7.131 2.116 3.25 3.959 4.185c1.843.936 4.387 1.402 7.635 1.402 1.655 0 3.186-.116 4.592-.35 1.405-.234 2.56-.506 3.466-.818v-4.955l-.188-.235c-.875.218-1.952.42-3.231.608-1.282.187-2.67.281-4.169.281-1.812 0-3.187-.124-4.122-.373-.938-.25-1.601-.67-1.992-1.262s-.586-1.402-.586-2.432v-1.87h15.131V38.13c0-2.057-.405-3.795-1.217-5.213-.812-1.417-1.967-2.484-3.466-3.202v-.006Zm-1.64 8.93h-8.804c.02-1.123.142-2.029.37-2.711.25-.749.702-1.294 1.358-1.637.656-.343 1.561-.514 2.717-.514h.468c.999 0 1.781.086 2.342.257.562.172.96.476 1.195.911.235.437.352 1.06.352 1.87v1.822l.002.002Zm31.574-9.165-.235-.328h-6.747l-3.139 5.61a41.4 41.4 0 0 0-1.264 2.805h-.235a64.391 64.391 0 0 0-1.312-2.805l-3.045-5.61h-6.7l-.282.328 6.933 11.689-7.261 12.343.235.328h6.793l2.905-5.237a74.504 74.504 0 0 0 1.734-3.647h.235a20.602 20.602 0 0 0 1.826 3.6l2.857 5.284h6.841l.235-.328-7.403-12.343 7.027-11.69h.002Zm15.46 18.75c-.967 0-1.679-.086-2.132-.257-.453-.17-.757-.46-.913-.864-.156-.405-.235-.998-.235-1.778V34.714h7.261V29.15h-7.261v-6.359h-2.343l-4.357 1.731v4.63h-3.372v5.563h3.372v10.192c0 1.995.273 3.686.819 5.072.547 1.387 1.5 2.462 2.858 3.227 1.358.765 3.1 1.145 5.223 1.145.999 0 2.021-.069 3.068-.21 1.046-.14 1.803-.288 2.271-.444v-5.422l-.235-.235a38.61 38.61 0 0 1-4.028.188l.004-.004Zm37.806-11.059c-1.217-.731-2.763-1.27-4.638-1.612l-4.263-.89c-1.249-.187-2.163-.427-2.741-.723-.579-.296-.968-.6-1.171-.911-.203-.311-.304-.778-.304-1.403v-.466c0-.717.195-1.294.586-1.731.391-.437 1.101-.756 2.133-.958 1.031-.203 2.466-.304 4.309-.304 1.218 0 2.546.047 3.983.14 1.436.094 2.623.218 3.561.374l.234-.188v-5.61c-.905-.187-2.061-.35-3.466-.491a44.736 44.736 0 0 0-4.451-.21c-3.372 0-6.083.383-8.127 1.146-2.046.765-3.498 1.839-4.357 3.226-.859 1.388-1.289 3.08-1.289 5.072 0 1.59.258 2.931.772 4.02a6.466 6.466 0 0 0 2.319 2.665c1.031.686 2.358 1.185 3.983 1.496l4.357.842c1.593.373 2.741.709 3.443 1.005.703.296 1.171.632 1.406 1.005.234.373.351.936.351 1.684v.466c0 .904-.21 1.605-.633 2.104-.421.499-1.124.85-2.108 1.052-.985.203-2.397.304-4.241.304-2.78 0-5.826-.25-9.134-.748l-.188.234v5.75c.844.156 2.123.321 3.842.492 1.717.17 3.622.257 5.715.257 3.405 0 6.114-.398 8.128-1.193 2.014-.795 3.434-1.933 4.263-3.412.826-1.48 1.242-3.296 1.242-5.447 0-1.684-.282-3.094-.844-4.232-.562-1.138-1.452-2.072-2.67-2.805h-.002Zm22.299 9.765c-.518.347-1.172.638-1.967.872a9.033 9.033 0 0 1-2.575.373c-1.406 0-2.383-.187-2.928-.56-.546-.374-.819-1.092-.819-2.151V29.149h-6.652v16.13c0 3.025.702 5.291 2.108 6.803 1.405 1.51 3.389 2.267 5.95 2.267 1.843 0 3.349-.359 4.52-1.077 1.17-.716 1.959-1.745 2.365-3.086h.231l1.503 3.647h4.919V29.149h-6.653V46.93h-.002Zm18.692-17.782h-6.7v24.686h6.7V29.149Zm-.96-9.749c-.485-.14-1.289-.21-2.412-.21-1.124 0-1.89.07-2.39.21-.5.141-.829.415-.984.818-.156.405-.235 1.076-.235 2.01 0 .934.077 1.558.235 1.963.155.405.484.694.984.864.5.173 1.296.257 2.39.257 1.093 0 1.927-.086 2.412-.257.485-.17.804-.459.96-.864.156-.405.235-1.06.235-1.963 0-.904-.079-1.566-.235-1.988-.156-.42-.477-.7-.96-.841v.002Zm17.871 28.825c-.968 0-1.68-.086-2.133-.257-.452-.17-.757-.46-.913-.864-.156-.405-.234-.998-.234-1.778V34.714h7.261V29.15h-7.261v-6.359h-2.343l-4.357 1.731v4.63h-3.373v5.563h3.373v10.192c0 1.995.272 3.686.819 5.072.547 1.387 1.499 2.462 2.858 3.227 1.358.763 3.1 1.145 5.223 1.145.999 0 2.021-.069 3.068-.21 1.046-.14 1.803-.288 2.271-.444v-5.422l-.235-.235a38.65 38.65 0 0 1-4.028.188l.004-.004Zm28.531-5.284v-4.815c0-2.057-.406-3.795-1.218-5.212-.811-1.418-1.967-2.485-3.466-3.203-1.499-.716-3.279-1.076-5.341-1.076-2.561 0-4.701.46-6.418 1.38-1.717.92-3.021 2.346-3.912 4.279-.89 1.933-1.336 4.38-1.336 7.34s.399 5.276 1.195 7.13c.797 1.855 2.116 3.25 3.959 4.186 1.843.935 4.387 1.402 7.635 1.402 1.655 0 3.186-.116 4.592-.35 1.405-.235 2.561-.507 3.466-.818V48.23l-.188-.235c-.875.218-1.952.42-3.233.608-1.281.187-2.67.281-4.169.281-1.811 0-3.186-.124-4.122-.373-.938-.25-1.601-.67-1.992-1.262-.39-.592-.586-1.402-.586-2.432v-1.87h15.132l.002-.005Zm-13.4-8.65c.656-.342 1.562-.513 2.717-.513h.468c.999 0 1.781.086 2.343.257.561.172.96.476 1.195.911.234.437.351 1.06.351 1.87v1.822h-8.804c.021-1.123.143-2.029.37-2.711.25-.748.703-1.294 1.358-1.637l.002.002Z"/></svg>