<svg xmlns="http://www.w3.org/2000/svg" width="71" height="75" fill="none"><path fill="#F26A02" d="M27.078 44.704c-.082-.14-.16-.283-.237-.426h-5.14c-3.773-.001-6.846-3.059-6.846-6.815 0-3.758 3.072-6.815 6.848-6.814h17.974a6.862 6.862 0 0 1 5.933 3.407l1.977 3.407 4.44-7.655.004-.005a14.406 14.406 0 0 0-5.155-4.923l-.237-.131c-2.543-1.473-6.47-1.758-6.47-1.758a11.877 11.877 0 0 0-.49-.008H21.703c-8.023 0-14.55 6.495-14.55 14.48-.002 7.985 6.527 14.48 14.55 14.48h9.575l-4.2-7.239z"/><path fill="#3AA7FB" d="M52.282 44.702c-.081.14-.167.28-.252.417l2.569 4.43c1.886 3.252.762 7.43-2.507 9.308-3.27 1.878-7.467.76-9.354-2.495l-8.988-15.49a6.795 6.795 0 0 1 0-6.817l1.977-3.408-8.882.002h-.006a14.303 14.303 0 0 0-1.703 7.174c-.01 2.927 1.705 6.455 1.705 6.455.076.142.155.285.237.426l8.988 15.492c4.012 6.914 12.929 9.293 19.877 5.299 6.95-3.991 9.339-12.865 5.327-19.78l-4.789-8.252-4.2 7.24v-.001z"/><path fill="#1954B3" d="M39.68 22.983a15 15 0 0 1 .489.008l2.57-4.429c1.887-3.253 6.085-4.372 9.354-2.494 3.27 1.88 4.394 6.054 2.506 9.31l-8.986 15.49a6.863 6.863 0 0 1-5.932 3.408h-3.954l4.442 7.654.003.006a14.489 14.489 0 0 0 7.095-2.12c2.553-1.455 4.764-4.697 4.764-4.697.086-.136.17-.276.252-.417l8.988-15.492c4.011-6.914 1.623-15.787-5.327-19.78-6.948-3.993-15.865-1.615-19.876 5.3l-4.788 8.253h8.4z"/></svg>