<svg width="258" height="258" viewBox="0 0 258 258" fill="none" xmlns="http://www.w3.org/2000/svg">
<path d="M255.841 53.7835H128.859L146.655 15.5608C151.081 6.06125 160.593 0 171.06 0H255.853C256.88 0 257.706 0.827083 257.706 1.85502V51.9166C257.706 52.9446 256.88 53.7717 255.853 53.7717L255.841 53.7835Z" fill="#1954B3"/>
<path d="M239.272 129H128.859L146.655 90.7773C151.081 81.2778 160.593 75.2165 171.06 75.2165H240.063C240.653 75.2165 241.125 75.6891 241.125 76.2799V127.133C241.125 128.161 240.299 128.988 239.272 128.988V129Z" fill="#F26A02"/>
<path d="M188.514 204.216H128.846L146.643 165.994C151.068 156.494 160.58 150.433 171.048 150.433H188.514C189.54 150.433 190.366 151.26 190.366 152.288V202.35C190.366 203.378 189.54 204.205 188.514 204.205V204.216Z" fill="#3AA7FB"/>
<path d="M1.86463 204.217L128.846 204.216L111.05 242.439C106.625 251.939 97.1131 258 86.6453 258H1.85281C0.826101 258 0 257.173 0 256.145V206.083C0 205.055 0.826101 204.228 1.85281 204.228L1.86463 204.217Z" fill="#3AA7FB"/>
<path d="M18.4333 129H128.846L111.05 167.222C106.625 176.722 97.1127 182.783 86.6449 182.783H17.3594C16.9228 182.783 16.5687 182.429 16.5687 181.992V130.867C16.5687 129.839 17.3948 129.012 18.4216 129.012L18.4333 129Z" fill="#F26A02"/>
<path d="M69.1906 53.7833L128.859 53.7835L111.062 92.006C106.636 101.506 97.1244 107.567 86.6566 107.567H69.1906C68.1639 107.567 67.3378 106.74 67.3378 105.712V55.6502C67.3378 54.6222 68.1639 53.7952 69.1906 53.7952V53.7833Z" fill="#1954B3"/>
</svg>
