<svg width="994" height="258" viewBox="0 0 994 258" fill="none" xmlns="http://www.w3.org/2000/svg">
<path d="M255.841 53.7835H128.859L146.655 15.5608C151.081 6.06125 160.593 0 171.06 0H255.853C256.88 0 257.706 0.827083 257.706 1.85502V51.9166C257.706 52.9446 256.88 53.7717 255.853 53.7717L255.841 53.7835Z" fill="#1954B3"/>
<path d="M239.272 129H128.859L146.655 90.7773C151.081 81.2778 160.593 75.2165 171.06 75.2165H240.063C240.653 75.2165 241.125 75.6891 241.125 76.2799V127.133C241.125 128.161 240.299 128.988 239.272 128.988V129Z" fill="#F26A02"/>
<path d="M188.514 204.216H128.846L146.643 165.994C151.068 156.494 160.58 150.433 171.048 150.433H188.514C189.54 150.433 190.366 151.26 190.366 152.288V202.35C190.366 203.378 189.54 204.205 188.514 204.205V204.216Z" fill="#3AA7FB"/>
<path d="M1.86463 204.217L128.846 204.216L111.05 242.439C106.625 251.939 97.1131 258 86.6453 258H1.85281C0.826101 258 0 257.173 0 256.145V206.083C0 205.055 0.826101 204.228 1.85281 204.228L1.86463 204.217Z" fill="#3AA7FB"/>
<path d="M18.4333 129H128.846L111.05 167.222C106.625 176.722 97.1127 182.783 86.6449 182.783H17.3594C16.9228 182.783 16.5687 182.429 16.5687 181.992V130.867C16.5687 129.839 17.3948 129.012 18.4216 129.012L18.4333 129Z" fill="#F26A02"/>
<path d="M69.1906 53.7833L128.859 53.7835L111.062 92.006C106.636 101.506 97.1244 107.567 86.6566 107.567H69.1906C68.1639 107.567 67.3378 106.74 67.3378 105.712V55.6502C67.3378 54.6222 68.1639 53.7952 69.1906 53.7952V53.7833Z" fill="#1954B3"/>
<path d="M426.546 51.7511H328.773C328.041 51.7511 327.451 51.9402 327.002 52.3065C326.566 52.6727 326.342 53.299 326.342 54.1851V204.004C326.342 204.736 326.566 205.327 327.002 205.776C327.439 206.225 328.029 206.438 328.773 206.438H355.255C355.986 206.438 356.541 206.213 356.907 205.776C357.273 205.339 357.462 204.748 357.462 204.004V143.899H422.133C423.018 143.899 423.643 143.675 424.009 143.237C424.375 142.8 424.564 142.209 424.564 141.465V121.131C424.564 120.245 424.375 119.618 424.009 119.252C423.643 118.886 423.018 118.697 422.133 118.697H357.462V76.7051H426.546C427.432 76.7051 428.057 76.4807 428.423 76.0435C428.789 75.6063 428.978 75.0156 428.978 74.2712V54.1615C428.978 53.2753 428.789 52.6491 428.423 52.2828C428.057 51.9166 427.432 51.7275 426.546 51.7275V51.7511Z" fill="black"/>
<path d="M507.952 93.2937H473.965C463.072 93.2937 454.729 96.1648 448.91 101.907C443.092 107.649 440.189 116.05 440.189 127.097V203.992C440.189 204.724 440.414 205.315 440.85 205.764C441.287 206.213 441.877 206.426 442.62 206.426H468.217C468.949 206.426 469.504 206.201 469.87 205.764C470.235 205.327 470.424 204.736 470.424 203.992V117.586H507.941C508.826 117.586 509.451 117.362 509.817 116.924C510.183 116.487 510.372 115.896 510.372 115.152V95.704C510.372 94.8178 510.183 94.1916 509.817 93.8253C509.451 93.459 508.826 93.27 507.941 93.27L507.952 93.2937Z" fill="black"/>
<path d="M644.435 184.343H633.176V95.7276C633.176 94.8414 632.952 94.2152 632.515 93.8489C632.079 93.4826 631.488 93.2936 630.745 93.2936H605.136C603.519 93.2936 602.705 94.1089 602.705 95.7276V109.871H601.82C597.996 104.27 592.957 99.8511 586.703 96.6137C580.448 93.3763 573.721 91.7576 566.51 91.7576C556.645 91.7576 548.041 94.1207 540.689 98.835C533.325 103.549 527.696 110.249 523.802 118.945C519.907 127.641 517.948 138.026 517.948 150.102C517.948 162.177 519.895 171.948 523.802 180.704C527.696 189.471 533.325 196.205 540.689 200.92C548.041 205.634 556.656 207.997 566.51 207.997C574.311 207.997 581.522 206.378 588.142 203.141C594.763 199.903 599.767 195.555 603.154 190.097H604.251V190.983C604.251 196.146 605.762 200.01 608.771 202.586C611.78 205.161 616.383 206.449 622.567 206.449H644.423C646.04 206.449 646.854 205.646 646.854 204.015V186.777C646.854 185.158 646.04 184.343 644.423 184.343H644.435ZM600.734 168.758C598.669 173.992 595.577 177.962 591.47 180.692C587.352 183.421 582.419 184.78 576.683 184.78C570.948 184.78 565.979 183.421 561.79 180.692C557.601 177.962 554.402 173.992 552.184 168.758C549.977 163.536 548.879 157.309 548.879 150.09C548.879 142.871 549.977 136.384 552.184 131.091C554.391 125.786 557.589 121.78 561.79 119.051C565.979 116.322 570.948 114.963 576.683 114.963C582.419 114.963 587.316 116.322 591.364 119.051C595.412 121.78 598.504 125.786 600.628 131.091C602.764 136.396 603.826 142.729 603.826 150.09C603.826 157.451 602.8 163.536 600.734 168.758Z" fill="black"/>
<path d="M690.789 93.2937H665.192C664.461 93.2937 663.87 93.4827 663.422 93.849C662.985 94.2152 662.761 94.8415 662.761 95.7276V204.003C662.761 204.736 662.985 205.327 663.422 205.776C663.859 206.225 664.449 206.437 665.192 206.437H690.789C691.521 206.437 692.076 206.213 692.441 205.776C692.807 205.339 692.996 204.748 692.996 204.003V95.7276C692.996 94.8415 692.807 94.2152 692.441 93.849C692.076 93.4827 691.521 93.2937 690.789 93.2937Z" fill="black"/>
<path d="M692.336 42.2515H663.647C663.057 42.2515 662.549 42.476 662.101 42.9132C661.652 43.3504 661.44 43.9411 661.44 44.6855V72.3098C661.44 72.9006 661.664 73.4558 662.101 73.9639C662.537 74.4838 663.057 74.7438 663.647 74.7438H692.336C693.067 74.7438 693.658 74.4838 694.106 73.9639C694.543 73.4558 694.767 72.9006 694.767 72.3098V44.6855C694.767 43.9529 694.543 43.3622 694.106 42.9132C693.669 42.4642 693.079 42.2515 692.336 42.2515Z" fill="black"/>
<path d="M826.033 60.0334C814.774 53.4759 801.71 50.2031 786.852 50.2031C771.994 50.2031 758.706 53.4877 747.459 60.0334C736.201 66.591 727.48 75.866 721.308 87.8822C715.124 99.8866 712.032 113.77 712.032 129.531C712.032 145.293 715.124 158.881 721.308 170.743C727.492 182.606 736.166 191.775 747.353 198.249C758.529 204.736 771.699 207.973 786.864 207.973C802.029 207.973 814.786 204.736 826.044 198.249C837.303 191.775 846.024 182.594 852.196 170.743C858.38 158.881 861.472 145.151 861.472 129.531C861.472 113.911 858.38 99.8866 852.196 87.8822C846.012 75.8778 837.303 66.591 826.044 60.0334H826.033ZM824.605 158.148C821.218 166.183 816.285 172.326 809.818 176.604C803.339 180.881 795.691 183.008 786.864 183.008C778.037 183.008 770.165 180.869 763.686 176.604C757.207 172.326 752.286 166.183 748.899 158.148C745.512 150.125 743.825 140.579 743.825 129.531C743.825 118.484 745.512 108.465 748.899 100.359C752.286 92.2539 757.207 86.039 763.686 81.691C770.165 77.343 777.883 75.1689 786.864 75.1689C795.845 75.1689 803.339 77.343 809.818 81.691C816.285 86.039 821.218 92.3011 824.605 100.477C827.992 108.654 829.679 118.342 829.679 129.531C829.679 140.72 827.98 150.114 824.605 158.148Z" fill="black"/>
<path d="M989.598 139.704C986.648 133.667 981.986 128.882 975.578 125.337C969.17 121.792 960.827 119.075 950.524 117.161L931.323 114.065C925.883 113.037 921.422 111.631 917.976 109.871C914.518 108.098 911.946 105.889 910.246 103.242C908.559 100.596 907.709 97.4291 907.709 93.7427C907.709 87.5514 909.762 82.8371 913.893 79.5997C918.011 76.3623 924.042 74.7436 931.996 74.7436C939.95 74.7436 946.228 76.4804 950.866 79.9305C955.504 83.3924 958.549 88.8038 960.024 96.1766C960.166 97.2046 960.461 97.878 960.909 98.1616C961.346 98.457 961.936 98.5988 962.679 98.5988H988.501C989.386 98.5988 990.047 98.3743 990.483 97.9371C990.92 97.4999 991.073 96.9092 990.92 96.1648C989.445 86.4408 986.211 78.1582 981.207 71.3053C976.204 64.4524 969.512 59.23 961.122 55.6145C952.731 52.0108 942.877 50.2031 931.547 50.2031C920.218 50.2031 910.175 52.0108 901.855 55.6145C893.547 59.23 887.21 64.4524 882.879 71.3053C878.536 78.1582 876.365 86.3699 876.365 95.9403C876.365 104.187 878.052 111.336 881.439 117.373C884.826 123.411 889.83 128.35 896.45 132.178C903.071 136.006 911.462 138.806 921.611 140.579L940.812 143.899C946.11 144.785 950.335 146.002 953.498 147.55C956.661 149.098 958.974 151.118 960.449 153.623C961.924 156.128 962.656 159.294 962.656 163.122C962.656 167.4 961.629 171.039 959.564 174.063C957.498 177.088 954.489 179.404 950.512 181.023C946.535 182.641 941.909 183.457 936.61 183.457C926.898 183.457 919.463 181.436 914.318 177.383C909.16 173.331 905.856 166.962 904.381 158.266V158.042C903.944 156.86 903.13 156.269 901.95 156.269H876.129C875.243 156.269 874.583 156.494 874.146 156.931C873.709 157.368 873.556 158.042 873.709 158.916C875.621 174.678 882.017 186.8 892.91 195.272C903.803 203.744 918.436 207.973 936.834 207.973C948.6 207.973 958.797 206.13 967.4 202.444C976.003 198.757 982.588 193.464 987.155 186.529C991.711 179.605 994 171.429 994 162C994 153.162 992.525 145.718 989.586 139.681L989.598 139.704Z" fill="black"/>
</svg>
